<svg width="140" height="39" viewBox="0 0 140 39" fill="none" xmlns="http://www.w3.org/2000/svg">
<g clip-path="url(#clip0_1942_19226)">
<path d="M36.4902 12.6544C36.0057 11.6229 35.2501 10.7529 34.3096 10.1435C33.0023 9.28465 31.4781 8.84435 29.9289 8.87802C28.3374 8.84563 26.7701 9.28478 25.4128 10.1435C24.0844 11.0255 23.0297 12.2832 22.3741 13.7666C21.6045 15.5501 21.234 17.4896 21.2902 19.4412C21.2391 21.393 21.6116 23.3318 22.3806 25.1157C23.0302 26.6084 24.0859 27.8741 25.4193 28.7589C26.7759 29.6199 28.3432 30.0614 29.9354 30.031C31.4632 30.0534 32.9645 29.6185 34.258 28.7789C35.1277 28.2357 35.844 27.4663 36.3354 26.5477V29.6247H41.1677V14.3727C41.1677 13.5424 41.1999 12.6966 41.2644 11.8352C41.3289 10.976 41.4064 10.1301 41.4838 9.29761H36.8257L36.4902 12.6544ZM34.9935 24.4963C34.5372 25.0438 33.9674 25.4784 33.3264 25.7678C32.6853 26.0571 31.9894 26.1939 31.2902 26.168C30.5877 26.198 29.8877 26.0631 29.243 25.7735C28.5982 25.484 28.0254 25.0473 27.5677 24.4963C26.6429 23.3818 26.1806 21.6968 26.1806 19.4412C26.1806 17.1856 26.6494 15.5094 27.587 14.4127C28.0464 13.8703 28.6172 13.4406 29.2578 13.1548C29.8985 12.8691 30.5928 12.7345 31.2902 12.7609C31.9877 12.7345 32.682 12.8691 33.3227 13.1548C33.9633 13.4406 34.5341 13.8703 34.9935 14.4127C35.9268 15.5094 36.3956 17.1856 36.3999 19.4412C36.4042 21.6968 35.9354 23.3818 34.9935 24.4963Z" fill="#184135"/>
<path d="M49.4258 0H44.5483V29.6248H49.4258V0Z" fill="#184135"/>
<path d="M57.6516 0H52.7742V29.6248H57.6516V0Z" fill="#184135"/>
<path d="M101.987 10.1435C100.548 9.2678 98.8956 8.83563 97.2259 8.898C95.4579 8.85779 93.713 9.31849 92.1808 10.2301C90.7416 11.1129 89.5722 12.3962 88.8066 13.9332C87.9684 15.6545 87.552 17.5617 87.5937 19.4878C87.5937 22.7647 88.5313 25.3422 90.4066 27.2204C92.2818 29.0986 94.8625 30.0376 98.1485 30.0376C99.5523 30.0406 100.948 29.8159 102.284 29.3716C103.502 28.9885 104.639 28.3741 105.639 27.56L104.194 24.1766C103.36 24.8497 102.416 25.3619 101.407 25.6885C100.387 26.0041 99.3286 26.1612 98.2646 26.1547C97.4524 26.2066 96.6384 26.0888 95.8713 25.8084C95.1042 25.5281 94.3998 25.0909 93.8001 24.523C92.7873 23.3462 92.2373 21.8211 92.2582 20.2471H105.884V18.915C105.924 17.1035 105.585 15.3043 104.89 13.6401C104.279 12.2038 103.269 10.987 101.987 10.1435ZM92.3098 17.5896C92.4084 16.3422 92.832 15.1455 93.5356 14.1263C93.9709 13.5425 94.5373 13.0768 95.1858 12.7693C95.8343 12.4618 96.5456 12.3218 97.2582 12.3613C97.8881 12.3207 98.5185 12.434 99.098 12.692C99.6776 12.9501 100.19 13.3457 100.594 13.8466C101.345 14.9392 101.743 16.2495 101.729 17.5896H92.3098Z" fill="#184135"/>
<path d="M120.645 9.17772C120.367 9.07405 120.08 9.0004 119.787 8.95793C119.41 8.91294 119.031 8.89292 118.652 8.89798C117.654 8.89665 116.669 9.12414 115.768 9.56401C114.865 10.0161 114.093 10.7052 113.529 11.5621C113.241 11.9767 112.998 12.4235 112.806 12.8941L112.471 9.32424H107.742C107.845 10.159 107.916 11.0182 107.955 11.9018C107.994 12.7854 108.013 13.6578 108.013 14.5192V29.6247H112.929V18.8018C112.91 17.7897 113.104 16.7853 113.497 15.858C113.856 15.0279 114.453 14.3308 115.206 13.8599C116.074 13.3434 117.064 13.0873 118.065 13.1206C118.496 13.1159 118.927 13.1426 119.355 13.2005C119.799 13.2843 120.232 13.4206 120.645 13.6068V9.17772Z" fill="#184135"/>
<path d="M138.774 13.8268C137.987 12.2884 136.78 11.0219 135.303 10.1836C133.678 9.29352 131.858 8.8508 130.019 8.89821C128.186 8.84911 126.372 9.29203 124.755 10.1836C123.283 11.0266 122.08 12.2921 121.29 13.8268C120.435 15.5636 120.013 17.4936 120.064 19.4414C120.013 21.3955 120.435 23.332 121.29 25.076C122.07 26.6187 123.27 27.8921 124.742 28.7391C126.359 29.633 128.173 30.0783 130.006 30.0312C131.846 30.0766 133.666 29.6315 135.29 28.7391C136.772 27.8987 137.98 26.6241 138.761 25.076C139.617 23.332 140.038 21.3955 139.987 19.4414C140.042 17.4948 139.625 15.5648 138.774 13.8268ZM133.684 24.4832C133.219 25.01 132.654 25.4308 132.023 25.7188C131.392 26.0068 130.709 26.1555 130.019 26.1555C129.329 26.1555 128.647 26.0068 128.016 25.7188C127.385 25.4308 126.819 25.01 126.355 24.4832C125.447 23.3687 124.991 21.6837 124.987 19.4281C124.983 17.1725 125.439 15.4963 126.355 14.3996C126.822 13.8782 127.389 13.4622 128.02 13.1778C128.65 12.8933 129.331 12.7464 130.019 12.7464C130.707 12.7464 131.388 12.8933 132.019 13.1778C132.649 13.4622 133.216 13.8782 133.684 14.3996C134.591 15.4963 135.047 17.1725 135.052 19.4281C135.056 21.6837 134.6 23.3732 133.684 24.4965V24.4832Z" fill="#184135"/>
<path d="M76.5613 24.1899C75.728 24.863 74.7838 25.3752 73.7742 25.7018C72.7551 26.0174 71.6962 26.1745 70.6323 26.168C69.82 26.2203 69.0059 26.1027 68.2388 25.8223C67.4716 25.5419 66.7672 25.1045 66.1678 24.5363C65.1472 23.3581 64.5923 21.8274 64.6129 20.2471H78.2387V18.915C78.2784 17.1035 77.9395 15.3043 77.2452 13.6401C76.6347 12.1994 75.6216 10.9795 74.3355 10.1368C72.8987 9.26028 71.2484 8.828 69.5807 8.89134C67.8105 8.84991 66.0632 9.31064 64.529 10.2234C63.0916 11.1064 61.9244 12.3898 61.1613 13.9265C60.3232 15.6478 59.9067 17.5551 59.9484 19.4811C59.9484 22.758 60.8839 25.3355 62.7549 27.2137C64.6323 29.0919 67.2129 30.031 70.4968 30.031C71.9006 30.034 73.2961 29.8092 74.6323 29.365C75.85 28.9818 76.9877 28.3674 77.9871 27.5534L76.5613 24.1899ZM65.8968 14.1263C66.3321 13.5425 66.8985 13.0768 67.547 12.7693C68.1955 12.4618 68.9068 12.3218 69.6194 12.3613C70.2493 12.3207 70.8797 12.434 71.4592 12.692C72.0388 12.9501 72.5512 13.3457 72.9549 13.8466C73.7039 14.9406 74.1011 16.2499 74.0903 17.5896H64.671C64.7696 16.3422 65.1932 15.1455 65.8968 14.1263Z" fill="#184135"/>
<path d="M80.5355 30.5907C80.5355 31.9893 80.271 32.9817 79.742 33.5744C79.4556 33.8745 79.1109 34.1086 78.7306 34.2613C78.3503 34.4139 77.943 34.4818 77.5355 34.4603C77.1563 34.4585 76.7781 34.4183 76.4065 34.3404C76.0129 34.2538 75.6516 34.1606 75.3162 34.054V38.0501C75.8094 38.2505 76.3254 38.3848 76.8516 38.4498C77.3883 38.5259 77.9293 38.566 78.471 38.5696C80.8667 38.5696 82.6215 37.9192 83.7355 36.6182C84.8516 35.3194 85.4129 33.4013 85.4129 30.8837V9.32446H80.5355V30.5907Z" fill="#184135"/>
<path d="M83.271 0.566074H82.6259C82.3033 0.548718 81.9806 0.599333 81.6775 0.714836C81.3744 0.83034 81.0973 1.00831 80.863 1.23792C80.6287 1.46753 80.4421 1.74397 80.3146 2.05041C80.1871 2.35685 80.1213 2.68687 80.1213 3.02038C80.1213 3.35389 80.1871 3.68391 80.3146 3.99035C80.4421 4.29678 80.6287 4.57322 80.863 4.80283C81.0973 5.03244 81.3744 5.21042 81.6775 5.32592C81.9806 5.44142 82.3033 5.49204 82.6259 5.47468H83.271C83.8801 5.44191 84.4538 5.16904 84.8738 4.71237C85.2937 4.25569 85.5278 3.65004 85.5278 3.02038C85.5278 2.39071 85.2937 1.78507 84.8738 1.32839C84.4538 0.871713 83.8801 0.598842 83.271 0.566074Z" fill="#184135"/>
<path d="M17.9358 10.2567C16.9793 9.41176 15.8633 8.78124 14.6583 8.40516C13.6957 8.07298 12.6965 7.86712 11.6841 7.79241C13.4325 5.94086 16.6454 5.51461 16.6454 5.51461L14.6777 1.71826C14.6777 1.71826 7.67769 3.07695 6.33575 8.47842C5.89215 8.64047 5.46086 8.83638 5.04543 9.06452C3.47323 9.91997 2.17886 11.233 1.32285 12.8409C0.393508 14.6705 -0.0620802 16.717 0.000267518 18.7818C-0.0582299 20.8595 0.385211 22.9195 1.29059 24.7761C2.13129 26.4226 3.42699 27.7741 5.01317 28.659C6.74426 29.5877 8.6759 30.0461 10.6261 29.991C11.975 29.994 13.3153 29.769 14.5938 29.325C15.7888 28.9326 16.8887 28.2808 17.8196 27.4135L16.2583 23.7637C15.5214 24.451 14.6626 24.9848 13.7293 25.3355C12.8802 25.6603 11.9832 25.8316 11.0777 25.8417C10.275 25.8878 9.47243 25.7478 8.72893 25.432C7.98543 25.1163 7.31982 24.6327 6.78091 24.0168C5.80672 22.8313 5.26478 21.0863 5.26478 18.8218C5.26478 16.5573 5.74865 14.9588 6.70994 13.7733C8.08414 17.9826 11.497 20.8598 15.4841 20.1805C18.9422 19.5944 19.897 17.6829 20.4003 15.9379C20.968 13.8999 19.5874 11.8751 17.9358 10.2567ZM11.2067 13.054C11.0269 12.676 10.8821 12.2813 10.7745 11.8751H11.1035C12.024 11.8847 12.9353 12.0652 13.7938 12.408C14.6091 12.7149 15.3666 13.1656 16.0325 13.74C16.2745 13.9491 16.4554 14.2235 16.5551 14.5326C17.1422 16.5573 13.5035 18.0425 11.2067 13.054Z" fill="#184135"/>
</g>
<defs>
<clipPath id="clip0_1942_19226">
<rect width="140" height="38.5629" fill="white"/>
</clipPath>
</defs>
</svg>
